<svg xmlns="http://www.w3.org/2000/svg" viewBox="0 0 1000 1500" width="1000" height="1500" font-family="Georgia, serif" role="img" aria-label="Liy Lavi — data art Atmart">
<defs>
<linearGradient id="bg" x1="0" y1="0" x2="0" y2="1"><stop offset="0" stop-color="#081426"/><stop offset="0.55" stop-color="#0b1c33"/><stop offset="1" stop-color="#0a1626"/></linearGradient>
<linearGradient id="g0" x1="0" y1="0" x2="1" y2="0"><stop offset="0" stop-color="#e76f51" stop-opacity="0.15"/><stop offset="0.5" stop-color="#f4a261" stop-opacity="0.85"/><stop offset="1" stop-color="#f4a261" stop-opacity="0.95"/></linearGradient>
<linearGradient id="f0" x1="0" y1="0" x2="0" y2="1"><stop offset="0" stop-color="#f4a261" stop-opacity="0.30"/><stop offset="1" stop-color="#f4a261" stop-opacity="0"/></linearGradient>
<linearGradient id="g1" x1="0" y1="0" x2="1" y2="0"><stop offset="0" stop-color="#1b7e89" stop-opacity="0.15"/><stop offset="0.5" stop-color="#33bab1" stop-opacity="0.85"/><stop offset="1" stop-color="#33bab1" stop-opacity="0.95"/></linearGradient>
<linearGradient id="f1" x1="0" y1="0" x2="0" y2="1"><stop offset="0" stop-color="#33bab1" stop-opacity="0.30"/><stop offset="1" stop-color="#33bab1" stop-opacity="0"/></linearGradient>
<linearGradient id="g2" x1="0" y1="0" x2="1" y2="0"><stop offset="0" stop-color="#217485" stop-opacity="0.15"/><stop offset="0.5" stop-color="#39b0ad" stop-opacity="0.85"/><stop offset="1" stop-color="#39b0ad" stop-opacity="0.95"/></linearGradient>
<linearGradient id="f2" x1="0" y1="0" x2="0" y2="1"><stop offset="0" stop-color="#39b0ad" stop-opacity="0.30"/><stop offset="1" stop-color="#39b0ad" stop-opacity="0"/></linearGradient>
<linearGradient id="g3" x1="0" y1="0" x2="1" y2="0"><stop offset="0" stop-color="#276a81" stop-opacity="0.15"/><stop offset="0.5" stop-color="#3fa6a9" stop-opacity="0.85"/><stop offset="1" stop-color="#3fa6a9" stop-opacity="0.95"/></linearGradient>
<linearGradient id="f3" x1="0" y1="0" x2="0" y2="1"><stop offset="0" stop-color="#3fa6a9" stop-opacity="0.30"/><stop offset="1" stop-color="#3fa6a9" stop-opacity="0"/></linearGradient>
<linearGradient id="g4" x1="0" y1="0" x2="1" y2="0"><stop offset="0" stop-color="#2c607c" stop-opacity="0.15"/><stop offset="0.5" stop-color="#449ca4" stop-opacity="0.85"/><stop offset="1" stop-color="#449ca4" stop-opacity="0.95"/></linearGradient>
<linearGradient id="f4" x1="0" y1="0" x2="0" y2="1"><stop offset="0" stop-color="#449ca4" stop-opacity="0.30"/><stop offset="1" stop-color="#449ca4" stop-opacity="0"/></linearGradient>
<linearGradient id="g5" x1="0" y1="0" x2="1" y2="0"><stop offset="0" stop-color="#325678" stop-opacity="0.15"/><stop offset="0.5" stop-color="#4a92a0" stop-opacity="0.85"/><stop offset="1" stop-color="#4a92a0" stop-opacity="0.95"/></linearGradient>
<linearGradient id="f5" x1="0" y1="0" x2="0" y2="1"><stop offset="0" stop-color="#4a92a0" stop-opacity="0.30"/><stop offset="1" stop-color="#4a92a0" stop-opacity="0"/></linearGradient>
<linearGradient id="g6" x1="0" y1="0" x2="1" y2="0"><stop offset="0" stop-color="#384c74" stop-opacity="0.15"/><stop offset="0.5" stop-color="#50889c" stop-opacity="0.85"/><stop offset="1" stop-color="#50889c" stop-opacity="0.95"/></linearGradient>
<linearGradient id="f6" x1="0" y1="0" x2="0" y2="1"><stop offset="0" stop-color="#50889c" stop-opacity="0.30"/><stop offset="1" stop-color="#50889c" stop-opacity="0"/></linearGradient>
<linearGradient id="g7" x1="0" y1="0" x2="1" y2="0"><stop offset="0" stop-color="#3e4270" stop-opacity="0.15"/><stop offset="0.5" stop-color="#567e98" stop-opacity="0.85"/><stop offset="1" stop-color="#567e98" stop-opacity="0.95"/></linearGradient>
<linearGradient id="f7" x1="0" y1="0" x2="0" y2="1"><stop offset="0" stop-color="#567e98" stop-opacity="0.30"/><stop offset="1" stop-color="#567e98" stop-opacity="0"/></linearGradient>
</defs>
<rect width="1000" height="1500" fill="url(#bg)"/>
<g fill="#2ec4b6" opacity="0.10">
<circle cx="70.0" cy="359.0" r="1.4"/>
<circle cx="105.1" cy="349.5" r="1.4"/>
<circle cx="140.2" cy="342.3" r="1.4"/>
<circle cx="175.2" cy="307.2" r="1.4"/>
<circle cx="210.3" cy="311.9" r="1.4"/>
<circle cx="245.4" cy="320.7" r="1.4"/>
<circle cx="280.5" cy="321.5" r="1.4"/>
<circle cx="315.6" cy="326.1" r="1.4"/>
<circle cx="350.7" cy="326.9" r="1.4"/>
<circle cx="385.8" cy="335.7" r="1.4"/>
<circle cx="420.8" cy="331.7" r="1.4"/>
<circle cx="455.9" cy="335.2" r="1.4"/>
<circle cx="491.0" cy="336.3" r="1.4"/>
<circle cx="526.1" cy="335.0" r="1.4"/>
<circle cx="561.2" cy="327.4" r="1.4"/>
<circle cx="596.2" cy="315.4" r="1.4"/>
<circle cx="631.3" cy="308.3" r="1.4"/>
<circle cx="666.4" cy="306.9" r="1.4"/>
<circle cx="701.5" cy="302.5" r="1.4"/>
<circle cx="736.6" cy="293.6" r="1.4"/>
<circle cx="771.7" cy="262.6" r="1.4"/>
<circle cx="806.8" cy="285.9" r="1.4"/>
<circle cx="841.8" cy="288.1" r="1.4"/>
<circle cx="876.9" cy="287.0" r="1.4"/>
<circle cx="912.0" cy="305.0" r="1.4"/>
<circle cx="70.0" cy="482.7" r="1.4"/>
<circle cx="105.1" cy="471.5" r="1.4"/>
<circle cx="140.2" cy="461.9" r="1.4"/>
<circle cx="175.2" cy="449.0" r="1.4"/>
<circle cx="210.3" cy="441.4" r="1.4"/>
<circle cx="245.4" cy="441.9" r="1.4"/>
<circle cx="280.5" cy="438.8" r="1.4"/>
<circle cx="315.6" cy="435.6" r="1.4"/>
<circle cx="350.7" cy="441.4" r="1.4"/>
<circle cx="385.8" cy="442.4" r="1.4"/>
<circle cx="420.8" cy="444.2" r="1.4"/>
<circle cx="455.9" cy="449.4" r="1.4"/>
<circle cx="491.0" cy="449.0" r="1.4"/>
<circle cx="526.1" cy="444.9" r="1.4"/>
<circle cx="561.2" cy="437.4" r="1.4"/>
<circle cx="596.2" cy="441.1" r="1.4"/>
<circle cx="631.3" cy="437.3" r="1.4"/>
<circle cx="666.4" cy="442.3" r="1.4"/>
<circle cx="701.5" cy="447.6" r="1.4"/>
<circle cx="736.6" cy="446.1" r="1.4"/>
<circle cx="771.7" cy="408.9" r="1.4"/>
<circle cx="806.8" cy="389.8" r="1.4"/>
<circle cx="841.8" cy="414.7" r="1.4"/>
<circle cx="876.9" cy="434.0" r="1.4"/>
<circle cx="912.0" cy="438.3" r="1.4"/>
<circle cx="70.0" cy="655.7" r="1.4"/>
<circle cx="105.1" cy="650.1" r="1.4"/>
<circle cx="140.2" cy="648.4" r="1.4"/>
<circle cx="175.2" cy="642.2" r="1.4"/>
<circle cx="210.3" cy="639.1" r="1.4"/>
<circle cx="245.4" cy="633.0" r="1.4"/>
<circle cx="280.5" cy="627.8" r="1.4"/>
<circle cx="315.6" cy="623.6" r="1.4"/>
<circle cx="350.7" cy="621.8" r="1.4"/>
<circle cx="385.8" cy="624.5" r="1.4"/>
<circle cx="420.8" cy="619.2" r="1.4"/>
<circle cx="455.9" cy="619.9" r="1.4"/>
<circle cx="491.0" cy="620.9" r="1.4"/>
<circle cx="526.1" cy="617.6" r="1.4"/>
<circle cx="561.2" cy="615.1" r="1.4"/>
<circle cx="596.2" cy="614.2" r="1.4"/>
<circle cx="631.3" cy="610.7" r="1.4"/>
<circle cx="666.4" cy="611.9" r="1.4"/>
<circle cx="701.5" cy="610.0" r="1.4"/>
<circle cx="736.6" cy="608.0" r="1.4"/>
<circle cx="771.7" cy="609.1" r="1.4"/>
<circle cx="806.8" cy="604.9" r="1.4"/>
<circle cx="841.8" cy="610.2" r="1.4"/>
<circle cx="876.9" cy="609.1" r="1.4"/>
<circle cx="70.0" cy="762.8" r="1.4"/>
<circle cx="105.1" cy="761.6" r="1.4"/>
<circle cx="140.2" cy="759.2" r="1.4"/>
<circle cx="175.2" cy="740.1" r="1.4"/>
<circle cx="210.3" cy="737.7" r="1.4"/>
<circle cx="245.4" cy="762.6" r="1.4"/>
<circle cx="280.5" cy="759.4" r="1.4"/>
<circle cx="315.6" cy="761.7" r="1.4"/>
<circle cx="350.7" cy="763.2" r="1.4"/>
<circle cx="385.8" cy="766.1" r="1.4"/>
<circle cx="420.8" cy="765.2" r="1.4"/>
<circle cx="455.9" cy="764.5" r="1.4"/>
<circle cx="491.0" cy="766.4" r="1.4"/>
<circle cx="526.1" cy="765.5" r="1.4"/>
<circle cx="561.2" cy="765.5" r="1.4"/>
<circle cx="596.2" cy="764.5" r="1.4"/>
<circle cx="631.3" cy="764.7" r="1.4"/>
<circle cx="666.4" cy="761.1" r="1.4"/>
<circle cx="701.5" cy="759.7" r="1.4"/>
<circle cx="736.6" cy="757.6" r="1.4"/>
<circle cx="771.7" cy="741.8" r="1.4"/>
<circle cx="806.8" cy="736.8" r="1.4"/>
<circle cx="841.8" cy="752.5" r="1.4"/>
<circle cx="876.9" cy="754.1" r="1.4"/>
<circle cx="912.0" cy="752.5" r="1.4"/>
<circle cx="70.0" cy="936.3" r="1.4"/>
<circle cx="105.1" cy="924.9" r="1.4"/>
<circle cx="140.2" cy="918.0" r="1.4"/>
<circle cx="175.2" cy="913.1" r="1.4"/>
<circle cx="210.3" cy="908.8" r="1.4"/>
<circle cx="245.4" cy="906.2" r="1.4"/>
<circle cx="280.5" cy="899.2" r="1.4"/>
<circle cx="315.6" cy="895.2" r="1.4"/>
<circle cx="350.7" cy="896.5" r="1.4"/>
<circle cx="385.8" cy="898.4" r="1.4"/>
<circle cx="420.8" cy="898.5" r="1.4"/>
<circle cx="455.9" cy="916.4" r="1.4"/>
<circle cx="491.0" cy="903.5" r="1.4"/>
<circle cx="526.1" cy="902.0" r="1.4"/>
<circle cx="561.2" cy="901.3" r="1.4"/>
<circle cx="596.2" cy="903.9" r="1.4"/>
<circle cx="631.3" cy="905.7" r="1.4"/>
<circle cx="666.4" cy="903.9" r="1.4"/>
<circle cx="701.5" cy="903.3" r="1.4"/>
<circle cx="736.6" cy="897.4" r="1.4"/>
<circle cx="771.7" cy="887.5" r="1.4"/>
<circle cx="70.0" cy="1065.6" r="1.4"/>
<circle cx="105.1" cy="1065.2" r="1.4"/>
<circle cx="140.2" cy="1059.6" r="1.4"/>
<circle cx="175.2" cy="1061.1" r="1.4"/>
<circle cx="210.3" cy="1063.4" r="1.4"/>
<circle cx="245.4" cy="1063.5" r="1.4"/>
<circle cx="280.5" cy="1062.2" r="1.4"/>
<circle cx="315.6" cy="1055.5" r="1.4"/>
<circle cx="350.7" cy="1053.9" r="1.4"/>
<circle cx="385.8" cy="1054.1" r="1.4"/>
<circle cx="420.8" cy="1054.3" r="1.4"/>
<circle cx="455.9" cy="1044.9" r="1.4"/>
<circle cx="491.0" cy="1041.4" r="1.4"/>
<circle cx="526.1" cy="1040.8" r="1.4"/>
<circle cx="561.2" cy="1042.8" r="1.4"/>
<circle cx="596.2" cy="1043.8" r="1.4"/>
<circle cx="631.3" cy="1045.9" r="1.4"/>
<circle cx="666.4" cy="1046.6" r="1.4"/>
<circle cx="701.5" cy="1045.4" r="1.4"/>
<circle cx="736.6" cy="1047.2" r="1.4"/>
<circle cx="771.7" cy="1046.7" r="1.4"/>
<circle cx="806.8" cy="1046.0" r="1.4"/>
<circle cx="841.8" cy="1046.1" r="1.4"/>
<circle cx="876.9" cy="1050.9" r="1.4"/>
<circle cx="912.0" cy="1052.5" r="1.4"/>
<circle cx="70.0" cy="1207.5" r="1.4"/>
<circle cx="105.1" cy="1207.7" r="1.4"/>
<circle cx="140.2" cy="1207.9" r="1.4"/>
<circle cx="175.2" cy="1207.9" r="1.4"/>
<circle cx="210.3" cy="1207.8" r="1.4"/>
<circle cx="245.4" cy="1207.8" r="1.4"/>
<circle cx="280.5" cy="1207.9" r="1.4"/>
<circle cx="315.6" cy="1208.1" r="1.4"/>
<circle cx="350.7" cy="1208.4" r="1.4"/>
<circle cx="385.8" cy="1206.1" r="1.4"/>
<circle cx="420.8" cy="1205.1" r="1.4"/>
<circle cx="455.9" cy="1205.0" r="1.4"/>
<circle cx="491.0" cy="1205.5" r="1.4"/>
<circle cx="526.1" cy="1206.3" r="1.4"/>
<circle cx="561.2" cy="1207.0" r="1.4"/>
<circle cx="596.2" cy="1207.5" r="1.4"/>
<circle cx="631.3" cy="1207.6" r="1.4"/>
<circle cx="666.4" cy="1208.4" r="1.4"/>
<circle cx="701.5" cy="1208.6" r="1.4"/>
<circle cx="736.6" cy="1208.8" r="1.4"/>
<circle cx="771.7" cy="1208.9" r="1.4"/>
<circle cx="806.8" cy="1208.4" r="1.4"/>
<circle cx="841.8" cy="1202.4" r="1.4"/>
<circle cx="876.9" cy="1201.3" r="1.4"/>
<circle cx="912.0" cy="1198.5" r="1.4"/>
<circle cx="70.0" cy="1343.6" r="1.4"/>
<circle cx="105.1" cy="1344.0" r="1.4"/>
<circle cx="140.2" cy="1343.3" r="1.4"/>
<circle cx="175.2" cy="1341.8" r="1.4"/>
<circle cx="210.3" cy="1341.2" r="1.4"/>
<circle cx="245.4" cy="1342.3" r="1.4"/>
<circle cx="280.5" cy="1340.7" r="1.4"/>
<circle cx="315.6" cy="1340.2" r="1.4"/>
<circle cx="350.7" cy="1340.9" r="1.4"/>
<circle cx="385.8" cy="1340.4" r="1.4"/>
<circle cx="420.8" cy="1342.1" r="1.4"/>
<circle cx="455.9" cy="1340.0" r="1.4"/>
<circle cx="491.0" cy="1340.2" r="1.4"/>
<circle cx="526.1" cy="1340.0" r="1.4"/>
<circle cx="561.2" cy="1339.6" r="1.4"/>
<circle cx="596.2" cy="1339.8" r="1.4"/>
<circle cx="631.3" cy="1339.5" r="1.4"/>
<circle cx="666.4" cy="1338.9" r="1.4"/>
<circle cx="701.5" cy="1339.3" r="1.4"/>
<circle cx="736.6" cy="1338.8" r="1.4"/>
<circle cx="771.7" cy="1339.3" r="1.4"/>
<circle cx="806.8" cy="1338.4" r="1.4"/>
<circle cx="841.8" cy="1336.2" r="1.4"/>
<circle cx="876.9" cy="1333.9" r="1.4"/>
<circle cx="912.0" cy="1336.1" r="1.4"/>
</g>
<line x1="70.0" y1="417.5" x2="912.0" y2="417.5" stroke="#1e3a5f" stroke-width="1" opacity="0.55"/>
<path d="M 70.0 359.0 C 75.8 357.4, 93.4 352.3, 105.1 349.5 C 116.8 346.8, 128.5 349.4, 140.2 342.3 C 151.9 335.3, 163.6 312.2, 175.2 307.2 C 186.9 302.1, 198.6 309.7, 210.3 311.9 C 222.0 314.2, 233.7 319.1, 245.4 320.7 C 257.1 322.3, 268.8 320.6, 280.5 321.5 C 292.2 322.4, 303.9 325.2, 315.6 326.1 C 327.3 327.0, 339.0 325.3, 350.7 326.9 C 362.4 328.5, 374.1 334.8, 385.8 335.7 C 397.4 336.5, 409.1 331.8, 420.8 331.7 C 432.5 331.6, 444.2 334.4, 455.9 335.2 C 467.6 335.9, 479.3 336.4, 491.0 336.3 C 502.7 336.3, 514.4 336.5, 526.1 335.0 C 537.8 333.5, 549.5 330.7, 561.2 327.4 C 572.9 324.2, 584.6 318.6, 596.2 315.4 C 607.9 312.2, 619.6 309.7, 631.3 308.3 C 643.0 306.8, 654.7 307.8, 666.4 306.9 C 678.1 305.9, 689.8 304.7, 701.5 302.5 C 713.2 300.3, 724.9 300.3, 736.6 293.6 C 748.3 287.0, 760.0 263.9, 771.7 262.6 C 783.4 261.3, 795.1 281.6, 806.8 285.9 C 818.4 290.2, 830.1 287.9, 841.8 288.1 C 853.5 288.3, 865.2 284.2, 876.9 287.0 C 888.6 289.8, 906.2 302.0, 912.0 305.0 L 912.0 417.5 L 70.0 417.5 Z" fill="url(#f0)"/>
<path d="M 70.0 359.0 C 75.8 357.4, 93.4 352.3, 105.1 349.5 C 116.8 346.8, 128.5 349.4, 140.2 342.3 C 151.9 335.3, 163.6 312.2, 175.2 307.2 C 186.9 302.1, 198.6 309.7, 210.3 311.9 C 222.0 314.2, 233.7 319.1, 245.4 320.7 C 257.1 322.3, 268.8 320.6, 280.5 321.5 C 292.2 322.4, 303.9 325.2, 315.6 326.1 C 327.3 327.0, 339.0 325.3, 350.7 326.9 C 362.4 328.5, 374.1 334.8, 385.8 335.7 C 397.4 336.5, 409.1 331.8, 420.8 331.7 C 432.5 331.6, 444.2 334.4, 455.9 335.2 C 467.6 335.9, 479.3 336.4, 491.0 336.3 C 502.7 336.3, 514.4 336.5, 526.1 335.0 C 537.8 333.5, 549.5 330.7, 561.2 327.4 C 572.9 324.2, 584.6 318.6, 596.2 315.4 C 607.9 312.2, 619.6 309.7, 631.3 308.3 C 643.0 306.8, 654.7 307.8, 666.4 306.9 C 678.1 305.9, 689.8 304.7, 701.5 302.5 C 713.2 300.3, 724.9 300.3, 736.6 293.6 C 748.3 287.0, 760.0 263.9, 771.7 262.6 C 783.4 261.3, 795.1 281.6, 806.8 285.9 C 818.4 290.2, 830.1 287.9, 841.8 288.1 C 853.5 288.3, 865.2 284.2, 876.9 287.0 C 888.6 289.8, 906.2 302.0, 912.0 305.0" fill="none" stroke="url(#g0)" stroke-width="3.4" stroke-linecap="round" stroke-linejoin="round"/>
<circle cx="912.0" cy="305.0" r="4.5" fill="#f4a261"/>
<circle cx="74.0" cy="432.5" r="3.2" fill="#f4a261" opacity="0.9"/>
<text x="86.0" y="437.5" font-size="15" fill="#f4a261" opacity="1.00" letter-spacing="1.5">AYITI</text>
<text x="986.0" y="309.0" font-size="13" text-anchor="end" fill="#f4a261" opacity="0.85">16.3%</text>
<line x1="70.0" y1="550.0" x2="912.0" y2="550.0" stroke="#1e3a5f" stroke-width="1" opacity="0.55"/>
<path d="M 70.0 482.7 C 75.8 480.8, 93.4 474.9, 105.1 471.5 C 116.8 468.0, 128.5 465.6, 140.2 461.9 C 151.9 458.1, 163.6 452.5, 175.2 449.0 C 186.9 445.6, 198.6 442.6, 210.3 441.4 C 222.0 440.2, 233.7 442.3, 245.4 441.9 C 257.1 441.4, 268.8 439.8, 280.5 438.8 C 292.2 437.7, 303.9 435.1, 315.6 435.6 C 327.3 436.0, 339.0 440.3, 350.7 441.4 C 362.4 442.6, 374.1 442.0, 385.8 442.4 C 397.4 442.9, 409.1 443.0, 420.8 444.2 C 432.5 445.4, 444.2 448.6, 455.9 449.4 C 467.6 450.2, 479.3 449.7, 491.0 449.0 C 502.7 448.2, 514.4 446.8, 526.1 444.9 C 537.8 443.0, 549.5 438.0, 561.2 437.4 C 572.9 436.7, 584.6 441.1, 596.2 441.1 C 607.9 441.1, 619.6 437.1, 631.3 437.3 C 643.0 437.5, 654.7 440.6, 666.4 442.3 C 678.1 444.1, 689.8 447.0, 701.5 447.6 C 713.2 448.2, 724.9 452.6, 736.6 446.1 C 748.3 439.7, 760.0 418.3, 771.7 408.9 C 783.4 399.5, 795.1 388.8, 806.8 389.8 C 818.4 390.7, 830.1 407.4, 841.8 414.7 C 853.5 422.1, 865.2 430.1, 876.9 434.0 C 888.6 437.9, 906.2 437.6, 912.0 438.3 L 912.0 550.0 L 70.0 550.0 Z" fill="url(#f1)"/>
<path d="M 70.0 482.7 C 75.8 480.8, 93.4 474.9, 105.1 471.5 C 116.8 468.0, 128.5 465.6, 140.2 461.9 C 151.9 458.1, 163.6 452.5, 175.2 449.0 C 186.9 445.6, 198.6 442.6, 210.3 441.4 C 222.0 440.2, 233.7 442.3, 245.4 441.9 C 257.1 441.4, 268.8 439.8, 280.5 438.8 C 292.2 437.7, 303.9 435.1, 315.6 435.6 C 327.3 436.0, 339.0 440.3, 350.7 441.4 C 362.4 442.6, 374.1 442.0, 385.8 442.4 C 397.4 442.9, 409.1 443.0, 420.8 444.2 C 432.5 445.4, 444.2 448.6, 455.9 449.4 C 467.6 450.2, 479.3 449.7, 491.0 449.0 C 502.7 448.2, 514.4 446.8, 526.1 444.9 C 537.8 443.0, 549.5 438.0, 561.2 437.4 C 572.9 436.7, 584.6 441.1, 596.2 441.1 C 607.9 441.1, 619.6 437.1, 631.3 437.3 C 643.0 437.5, 654.7 440.6, 666.4 442.3 C 678.1 444.1, 689.8 447.0, 701.5 447.6 C 713.2 448.2, 724.9 452.6, 736.6 446.1 C 748.3 439.7, 760.0 418.3, 771.7 408.9 C 783.4 399.5, 795.1 388.8, 806.8 389.8 C 818.4 390.7, 830.1 407.4, 841.8 414.7 C 853.5 422.1, 865.2 430.1, 876.9 434.0 C 888.6 437.9, 906.2 437.6, 912.0 438.3" fill="none" stroke="url(#g1)" stroke-width="2.0" stroke-linecap="round" stroke-linejoin="round"/>
<circle cx="912.0" cy="438.3" r="3.0" fill="#2ec4b6"/>
<circle cx="74.0" cy="565.0" r="3.2" fill="#2ec4b6" opacity="0.9"/>
<text x="86.0" y="570.0" font-size="15" fill="#7f97ad" opacity="0.72" letter-spacing="1.5">JAMAYIK</text>
<text x="986.0" y="442.3" font-size="13" text-anchor="end" fill="#8fb9c9" opacity="0.85">16.2%</text>
<line x1="70.0" y1="682.5" x2="912.0" y2="682.5" stroke="#1e3a5f" stroke-width="1" opacity="0.55"/>
<path d="M 70.0 655.7 C 75.8 654.7, 93.4 651.3, 105.1 650.1 C 116.8 648.9, 128.5 649.7, 140.2 648.4 C 151.9 647.1, 163.6 643.8, 175.2 642.2 C 186.9 640.6, 198.6 640.6, 210.3 639.1 C 222.0 637.6, 233.7 634.9, 245.4 633.0 C 257.1 631.1, 268.8 629.4, 280.5 627.8 C 292.2 626.3, 303.9 624.6, 315.6 623.6 C 327.3 622.6, 339.0 621.7, 350.7 621.8 C 362.4 622.0, 374.1 625.0, 385.8 624.5 C 397.4 624.1, 409.1 620.0, 420.8 619.2 C 432.5 618.4, 444.2 619.6, 455.9 619.9 C 467.6 620.2, 479.3 621.3, 491.0 620.9 C 502.7 620.6, 514.4 618.6, 526.1 617.6 C 537.8 616.7, 549.5 615.7, 561.2 615.1 C 572.9 614.6, 584.6 615.0, 596.2 614.2 C 607.9 613.5, 619.6 611.1, 631.3 610.7 C 643.0 610.3, 654.7 612.0, 666.4 611.9 C 678.1 611.8, 689.8 610.7, 701.5 610.0 C 713.2 609.4, 724.9 608.2, 736.6 608.0 C 748.3 607.9, 760.0 609.7, 771.7 609.1 C 783.4 608.6, 795.1 604.7, 806.8 604.9 C 818.4 605.0, 830.1 609.5, 841.8 610.2 C 853.5 610.9, 871.1 609.3, 876.9 609.1 L 876.9 682.5 L 70.0 682.5 Z" fill="url(#f2)"/>
<path d="M 70.0 655.7 C 75.8 654.7, 93.4 651.3, 105.1 650.1 C 116.8 648.9, 128.5 649.7, 140.2 648.4 C 151.9 647.1, 163.6 643.8, 175.2 642.2 C 186.9 640.6, 198.6 640.6, 210.3 639.1 C 222.0 637.6, 233.7 634.9, 245.4 633.0 C 257.1 631.1, 268.8 629.4, 280.5 627.8 C 292.2 626.3, 303.9 624.6, 315.6 623.6 C 327.3 622.6, 339.0 621.7, 350.7 621.8 C 362.4 622.0, 374.1 625.0, 385.8 624.5 C 397.4 624.1, 409.1 620.0, 420.8 619.2 C 432.5 618.4, 444.2 619.6, 455.9 619.9 C 467.6 620.2, 479.3 621.3, 491.0 620.9 C 502.7 620.6, 514.4 618.6, 526.1 617.6 C 537.8 616.7, 549.5 615.7, 561.2 615.1 C 572.9 614.6, 584.6 615.0, 596.2 614.2 C 607.9 613.5, 619.6 611.1, 631.3 610.7 C 643.0 610.3, 654.7 612.0, 666.4 611.9 C 678.1 611.8, 689.8 610.7, 701.5 610.0 C 713.2 609.4, 724.9 608.2, 736.6 608.0 C 748.3 607.9, 760.0 609.7, 771.7 609.1 C 783.4 608.6, 795.1 604.7, 806.8 604.9 C 818.4 605.0, 830.1 609.5, 841.8 610.2 C 853.5 610.9, 871.1 609.3, 876.9 609.1" fill="none" stroke="url(#g2)" stroke-width="2.0" stroke-linecap="round" stroke-linejoin="round"/>
<circle cx="876.9" cy="609.1" r="3.0" fill="#2ec4b6"/>
<circle cx="74.0" cy="697.5" r="3.2" fill="#2ec4b6" opacity="0.9"/>
<text x="86.0" y="702.5" font-size="15" fill="#7f97ad" opacity="0.72" letter-spacing="1.5">SENEGAL</text>
<text x="884.9" y="702.5" font-size="11" fill="#6f8296" opacity="0.9" font-style="italic">done rive 2023</text>
<text x="986.0" y="613.1" font-size="13" text-anchor="end" fill="#8fb9c9" opacity="0.85">10.6%</text>
<line x1="70.0" y1="815.0" x2="912.0" y2="815.0" stroke="#1e3a5f" stroke-width="1" opacity="0.55"/>
<path d="M 70.0 762.8 C 75.8 762.6, 93.4 762.2, 105.1 761.6 C 116.8 761.0, 128.5 762.8, 140.2 759.2 C 151.9 755.6, 163.6 743.6, 175.2 740.1 C 186.9 736.5, 198.6 734.0, 210.3 737.7 C 222.0 741.5, 233.7 758.9, 245.4 762.6 C 257.1 766.2, 268.8 759.5, 280.5 759.4 C 292.2 759.2, 303.9 761.0, 315.6 761.7 C 327.3 762.3, 339.0 762.5, 350.7 763.2 C 362.4 764.0, 374.1 765.8, 385.8 766.1 C 397.4 766.5, 409.1 765.5, 420.8 765.2 C 432.5 764.9, 444.2 764.3, 455.9 764.5 C 467.6 764.7, 479.3 766.2, 491.0 766.4 C 502.7 766.6, 514.4 765.7, 526.1 765.5 C 537.8 765.4, 549.5 765.6, 561.2 765.5 C 572.9 765.3, 584.6 764.6, 596.2 764.5 C 607.9 764.4, 619.6 765.3, 631.3 764.7 C 643.0 764.1, 654.7 761.9, 666.4 761.1 C 678.1 760.3, 689.8 760.2, 701.5 759.7 C 713.2 759.1, 724.9 760.6, 736.6 757.6 C 748.3 754.6, 760.0 745.2, 771.7 741.8 C 783.4 738.3, 795.1 735.0, 806.8 736.8 C 818.4 738.6, 830.1 749.6, 841.8 752.5 C 853.5 755.4, 865.2 754.1, 876.9 754.1 C 888.6 754.1, 906.2 752.8, 912.0 752.5 L 912.0 815.0 L 70.0 815.0 Z" fill="url(#f3)"/>
<path d="M 70.0 762.8 C 75.8 762.6, 93.4 762.2, 105.1 761.6 C 116.8 761.0, 128.5 762.8, 140.2 759.2 C 151.9 755.6, 163.6 743.6, 175.2 740.1 C 186.9 736.5, 198.6 734.0, 210.3 737.7 C 222.0 741.5, 233.7 758.9, 245.4 762.6 C 257.1 766.2, 268.8 759.5, 280.5 759.4 C 292.2 759.2, 303.9 761.0, 315.6 761.7 C 327.3 762.3, 339.0 762.5, 350.7 763.2 C 362.4 764.0, 374.1 765.8, 385.8 766.1 C 397.4 766.5, 409.1 765.5, 420.8 765.2 C 432.5 764.9, 444.2 764.3, 455.9 764.5 C 467.6 764.7, 479.3 766.2, 491.0 766.4 C 502.7 766.6, 514.4 765.7, 526.1 765.5 C 537.8 765.4, 549.5 765.6, 561.2 765.5 C 572.9 765.3, 584.6 764.6, 596.2 764.5 C 607.9 764.4, 619.6 765.3, 631.3 764.7 C 643.0 764.1, 654.7 761.9, 666.4 761.1 C 678.1 760.3, 689.8 760.2, 701.5 759.7 C 713.2 759.1, 724.9 760.6, 736.6 757.6 C 748.3 754.6, 760.0 745.2, 771.7 741.8 C 783.4 738.3, 795.1 735.0, 806.8 736.8 C 818.4 738.6, 830.1 749.6, 841.8 752.5 C 853.5 755.4, 865.2 754.1, 876.9 754.1 C 888.6 754.1, 906.2 752.8, 912.0 752.5" fill="none" stroke="url(#g3)" stroke-width="2.0" stroke-linecap="round" stroke-linejoin="round"/>
<circle cx="912.0" cy="752.5" r="3.0" fill="#2ec4b6"/>
<circle cx="74.0" cy="830.0" r="3.2" fill="#2ec4b6" opacity="0.9"/>
<text x="86.0" y="835.0" font-size="15" fill="#7f97ad" opacity="0.72" letter-spacing="1.5">REPIBLIK DOMINIKEN</text>
<text x="986.0" y="756.5" font-size="13" text-anchor="end" fill="#8fb9c9" opacity="0.85">9.1%</text>
<line x1="70.0" y1="947.5" x2="912.0" y2="947.5" stroke="#1e3a5f" stroke-width="1" opacity="0.55"/>
<path d="M 70.0 936.3 C 75.8 934.4, 93.4 928.0, 105.1 924.9 C 116.8 921.9, 128.5 919.9, 140.2 918.0 C 151.9 916.0, 163.6 914.7, 175.2 913.1 C 186.9 911.6, 198.6 909.9, 210.3 908.8 C 222.0 907.6, 233.7 907.8, 245.4 906.2 C 257.1 904.6, 268.8 901.0, 280.5 899.2 C 292.2 897.4, 303.9 895.6, 315.6 895.2 C 327.3 894.7, 339.0 896.0, 350.7 896.5 C 362.4 897.0, 374.1 898.1, 385.8 898.4 C 397.4 898.8, 409.1 895.5, 420.8 898.5 C 432.5 901.5, 444.2 915.5, 455.9 916.4 C 467.6 917.2, 479.3 905.9, 491.0 903.5 C 502.7 901.1, 514.4 902.3, 526.1 902.0 C 537.8 901.6, 549.5 901.0, 561.2 901.3 C 572.9 901.7, 584.6 903.1, 596.2 903.9 C 607.9 904.6, 619.6 905.7, 631.3 905.7 C 643.0 905.7, 654.7 904.3, 666.4 903.9 C 678.1 903.5, 689.8 904.3, 701.5 903.3 C 713.2 902.2, 724.9 900.0, 736.6 897.4 C 748.3 894.8, 765.8 889.2, 771.7 887.5 L 771.7 947.5 L 70.0 947.5 Z" fill="url(#f4)"/>
<path d="M 70.0 936.3 C 75.8 934.4, 93.4 928.0, 105.1 924.9 C 116.8 921.9, 128.5 919.9, 140.2 918.0 C 151.9 916.0, 163.6 914.7, 175.2 913.1 C 186.9 911.6, 198.6 909.9, 210.3 908.8 C 222.0 907.6, 233.7 907.8, 245.4 906.2 C 257.1 904.6, 268.8 901.0, 280.5 899.2 C 292.2 897.4, 303.9 895.6, 315.6 895.2 C 327.3 894.7, 339.0 896.0, 350.7 896.5 C 362.4 897.0, 374.1 898.1, 385.8 898.4 C 397.4 898.8, 409.1 895.5, 420.8 898.5 C 432.5 901.5, 444.2 915.5, 455.9 916.4 C 467.6 917.2, 479.3 905.9, 491.0 903.5 C 502.7 901.1, 514.4 902.3, 526.1 902.0 C 537.8 901.6, 549.5 901.0, 561.2 901.3 C 572.9 901.7, 584.6 903.1, 596.2 903.9 C 607.9 904.6, 619.6 905.7, 631.3 905.7 C 643.0 905.7, 654.7 904.3, 666.4 903.9 C 678.1 903.5, 689.8 904.3, 701.5 903.3 C 713.2 902.2, 724.9 900.0, 736.6 897.4 C 748.3 894.8, 765.8 889.2, 771.7 887.5" fill="none" stroke="url(#g4)" stroke-width="2.0" stroke-linecap="round" stroke-linejoin="round"/>
<circle cx="771.7" cy="887.5" r="3.0" fill="#2ec4b6"/>
<circle cx="74.0" cy="962.5" r="3.2" fill="#2ec4b6" opacity="0.9"/>
<text x="86.0" y="967.5" font-size="15" fill="#7f97ad" opacity="0.72" letter-spacing="1.5">TOGO</text>
<text x="779.7" y="967.5" font-size="11" fill="#6f8296" opacity="0.9" font-style="italic">done rive 2020</text>
<text x="986.0" y="891.5" font-size="13" text-anchor="end" fill="#8fb9c9" opacity="0.85">8.7%</text>
<line x1="70.0" y1="1080.0" x2="912.0" y2="1080.0" stroke="#1e3a5f" stroke-width="1" opacity="0.55"/>
<path d="M 70.0 1065.6 C 75.8 1065.6, 93.4 1066.2, 105.1 1065.2 C 116.8 1064.2, 128.5 1060.3, 140.2 1059.6 C 151.9 1058.9, 163.6 1060.4, 175.2 1061.1 C 186.9 1061.7, 198.6 1063.0, 210.3 1063.4 C 222.0 1063.8, 233.7 1063.7, 245.4 1063.5 C 257.1 1063.3, 268.8 1063.5, 280.5 1062.2 C 292.2 1060.9, 303.9 1056.9, 315.6 1055.5 C 327.3 1054.1, 339.0 1054.1, 350.7 1053.9 C 362.4 1053.7, 374.1 1054.1, 385.8 1054.1 C 397.4 1054.2, 409.1 1055.9, 420.8 1054.3 C 432.5 1052.8, 444.2 1047.1, 455.9 1044.9 C 467.6 1042.8, 479.3 1042.1, 491.0 1041.4 C 502.7 1040.7, 514.4 1040.6, 526.1 1040.8 C 537.8 1041.0, 549.5 1042.3, 561.2 1042.8 C 572.9 1043.3, 584.6 1043.3, 596.2 1043.8 C 607.9 1044.4, 619.6 1045.4, 631.3 1045.9 C 643.0 1046.4, 654.7 1046.7, 666.4 1046.6 C 678.1 1046.5, 689.8 1045.3, 701.5 1045.4 C 713.2 1045.5, 724.9 1047.0, 736.6 1047.2 C 748.3 1047.5, 760.0 1046.9, 771.7 1046.7 C 783.4 1046.5, 795.1 1046.2, 806.8 1046.0 C 818.4 1045.9, 830.1 1045.3, 841.8 1046.1 C 853.5 1046.9, 865.2 1049.9, 876.9 1050.9 C 888.6 1052.0, 906.2 1052.2, 912.0 1052.5 L 912.0 1080.0 L 70.0 1080.0 Z" fill="url(#f5)"/>
<path d="M 70.0 1065.6 C 75.8 1065.6, 93.4 1066.2, 105.1 1065.2 C 116.8 1064.2, 128.5 1060.3, 140.2 1059.6 C 151.9 1058.9, 163.6 1060.4, 175.2 1061.1 C 186.9 1061.7, 198.6 1063.0, 210.3 1063.4 C 222.0 1063.8, 233.7 1063.7, 245.4 1063.5 C 257.1 1063.3, 268.8 1063.5, 280.5 1062.2 C 292.2 1060.9, 303.9 1056.9, 315.6 1055.5 C 327.3 1054.1, 339.0 1054.1, 350.7 1053.9 C 362.4 1053.7, 374.1 1054.1, 385.8 1054.1 C 397.4 1054.2, 409.1 1055.9, 420.8 1054.3 C 432.5 1052.8, 444.2 1047.1, 455.9 1044.9 C 467.6 1042.8, 479.3 1042.1, 491.0 1041.4 C 502.7 1040.7, 514.4 1040.6, 526.1 1040.8 C 537.8 1041.0, 549.5 1042.3, 561.2 1042.8 C 572.9 1043.3, 584.6 1043.3, 596.2 1043.8 C 607.9 1044.4, 619.6 1045.4, 631.3 1045.9 C 643.0 1046.4, 654.7 1046.7, 666.4 1046.6 C 678.1 1046.5, 689.8 1045.3, 701.5 1045.4 C 713.2 1045.5, 724.9 1047.0, 736.6 1047.2 C 748.3 1047.5, 760.0 1046.9, 771.7 1046.7 C 783.4 1046.5, 795.1 1046.2, 806.8 1046.0 C 818.4 1045.9, 830.1 1045.3, 841.8 1046.1 C 853.5 1046.9, 865.2 1049.9, 876.9 1050.9 C 888.6 1052.0, 906.2 1052.2, 912.0 1052.5" fill="none" stroke="url(#g5)" stroke-width="2.0" stroke-linecap="round" stroke-linejoin="round"/>
<circle cx="912.0" cy="1052.5" r="3.0" fill="#2ec4b6"/>
<circle cx="74.0" cy="1095.0" r="3.2" fill="#2ec4b6" opacity="0.9"/>
<text x="86.0" y="1100.0" font-size="15" fill="#7f97ad" opacity="0.72" letter-spacing="1.5">MALI</text>
<text x="986.0" y="1056.5" font-size="13" text-anchor="end" fill="#8fb9c9" opacity="0.85">4.0%</text>
<line x1="70.0" y1="1212.5" x2="912.0" y2="1212.5" stroke="#1e3a5f" stroke-width="1" opacity="0.55"/>
<path d="M 70.0 1207.5 C 75.8 1207.6, 93.4 1207.7, 105.1 1207.7 C 116.8 1207.8, 128.5 1207.9, 140.2 1207.9 C 151.9 1207.9, 163.6 1207.9, 175.2 1207.9 C 186.9 1207.9, 198.6 1207.8, 210.3 1207.8 C 222.0 1207.8, 233.7 1207.8, 245.4 1207.8 C 257.1 1207.8, 268.8 1207.9, 280.5 1207.9 C 292.2 1208.0, 303.9 1208.0, 315.6 1208.1 C 327.3 1208.2, 339.0 1208.8, 350.7 1208.4 C 362.4 1208.1, 374.1 1206.6, 385.8 1206.1 C 397.4 1205.5, 409.1 1205.3, 420.8 1205.1 C 432.5 1204.9, 444.2 1205.0, 455.9 1205.0 C 467.6 1205.1, 479.3 1205.3, 491.0 1205.5 C 502.7 1205.7, 514.4 1206.0, 526.1 1206.3 C 537.8 1206.5, 549.5 1206.9, 561.2 1207.0 C 572.9 1207.2, 584.6 1207.4, 596.2 1207.5 C 607.9 1207.6, 619.6 1207.4, 631.3 1207.6 C 643.0 1207.8, 654.7 1208.3, 666.4 1208.4 C 678.1 1208.6, 689.8 1208.5, 701.5 1208.6 C 713.2 1208.6, 724.9 1208.7, 736.6 1208.8 C 748.3 1208.8, 760.0 1209.0, 771.7 1208.9 C 783.4 1208.8, 795.1 1209.5, 806.8 1208.4 C 818.4 1207.3, 830.1 1203.5, 841.8 1202.4 C 853.5 1201.2, 865.2 1202.0, 876.9 1201.3 C 888.6 1200.7, 906.2 1199.0, 912.0 1198.5 L 912.0 1212.5 L 70.0 1212.5 Z" fill="url(#f6)"/>
<path d="M 70.0 1207.5 C 75.8 1207.6, 93.4 1207.7, 105.1 1207.7 C 116.8 1207.8, 128.5 1207.9, 140.2 1207.9 C 151.9 1207.9, 163.6 1207.9, 175.2 1207.9 C 186.9 1207.9, 198.6 1207.8, 210.3 1207.8 C 222.0 1207.8, 233.7 1207.8, 245.4 1207.8 C 257.1 1207.8, 268.8 1207.9, 280.5 1207.9 C 292.2 1208.0, 303.9 1208.0, 315.6 1208.1 C 327.3 1208.2, 339.0 1208.8, 350.7 1208.4 C 362.4 1208.1, 374.1 1206.6, 385.8 1206.1 C 397.4 1205.5, 409.1 1205.3, 420.8 1205.1 C 432.5 1204.9, 444.2 1205.0, 455.9 1205.0 C 467.6 1205.1, 479.3 1205.3, 491.0 1205.5 C 502.7 1205.7, 514.4 1206.0, 526.1 1206.3 C 537.8 1206.5, 549.5 1206.9, 561.2 1207.0 C 572.9 1207.2, 584.6 1207.4, 596.2 1207.5 C 607.9 1207.6, 619.6 1207.4, 631.3 1207.6 C 643.0 1207.8, 654.7 1208.3, 666.4 1208.4 C 678.1 1208.6, 689.8 1208.5, 701.5 1208.6 C 713.2 1208.6, 724.9 1208.7, 736.6 1208.8 C 748.3 1208.8, 760.0 1209.0, 771.7 1208.9 C 783.4 1208.8, 795.1 1209.5, 806.8 1208.4 C 818.4 1207.3, 830.1 1203.5, 841.8 1202.4 C 853.5 1201.2, 865.2 1202.0, 876.9 1201.3 C 888.6 1200.7, 906.2 1199.0, 912.0 1198.5" fill="none" stroke="url(#g6)" stroke-width="2.0" stroke-linecap="round" stroke-linejoin="round"/>
<circle cx="912.0" cy="1198.5" r="3.0" fill="#2ec4b6"/>
<circle cx="74.0" cy="1227.5" r="3.2" fill="#2ec4b6" opacity="0.9"/>
<text x="86.0" y="1232.5" font-size="15" fill="#7f97ad" opacity="0.72" letter-spacing="1.5">KOT DIVWA</text>
<text x="986.0" y="1202.5" font-size="13" text-anchor="end" fill="#8fb9c9" opacity="0.85">2.0%</text>
<line x1="70.0" y1="1345.0" x2="912.0" y2="1345.0" stroke="#1e3a5f" stroke-width="1" opacity="0.55"/>
<path d="M 70.0 1343.6 C 75.8 1343.6, 93.4 1344.0, 105.1 1344.0 C 116.8 1343.9, 128.5 1343.7, 140.2 1343.3 C 151.9 1343.0, 163.6 1342.1, 175.2 1341.8 C 186.9 1341.4, 198.6 1341.1, 210.3 1341.2 C 222.0 1341.3, 233.7 1342.4, 245.4 1342.3 C 257.1 1342.2, 268.8 1341.1, 280.5 1340.7 C 292.2 1340.4, 303.9 1340.1, 315.6 1340.2 C 327.3 1340.2, 339.0 1340.9, 350.7 1340.9 C 362.4 1341.0, 374.1 1340.2, 385.8 1340.4 C 397.4 1340.6, 409.1 1342.2, 420.8 1342.1 C 432.5 1342.0, 444.2 1340.4, 455.9 1340.0 C 467.6 1339.7, 479.3 1340.2, 491.0 1340.2 C 502.7 1340.2, 514.4 1340.1, 526.1 1340.0 C 537.8 1339.9, 549.5 1339.7, 561.2 1339.6 C 572.9 1339.6, 584.6 1339.8, 596.2 1339.8 C 607.9 1339.8, 619.6 1339.6, 631.3 1339.5 C 643.0 1339.3, 654.7 1339.0, 666.4 1338.9 C 678.1 1338.9, 689.8 1339.3, 701.5 1339.3 C 713.2 1339.2, 724.9 1338.8, 736.6 1338.8 C 748.3 1338.8, 760.0 1339.4, 771.7 1339.3 C 783.4 1339.3, 795.1 1338.9, 806.8 1338.4 C 818.4 1337.9, 830.1 1337.0, 841.8 1336.2 C 853.5 1335.5, 865.2 1333.9, 876.9 1333.9 C 888.6 1333.9, 906.2 1335.7, 912.0 1336.1 L 912.0 1345.0 L 70.0 1345.0 Z" fill="url(#f7)"/>
<path d="M 70.0 1343.6 C 75.8 1343.6, 93.4 1344.0, 105.1 1344.0 C 116.8 1343.9, 128.5 1343.7, 140.2 1343.3 C 151.9 1343.0, 163.6 1342.1, 175.2 1341.8 C 186.9 1341.4, 198.6 1341.1, 210.3 1341.2 C 222.0 1341.3, 233.7 1342.4, 245.4 1342.3 C 257.1 1342.2, 268.8 1341.1, 280.5 1340.7 C 292.2 1340.4, 303.9 1340.1, 315.6 1340.2 C 327.3 1340.2, 339.0 1340.9, 350.7 1340.9 C 362.4 1341.0, 374.1 1340.2, 385.8 1340.4 C 397.4 1340.6, 409.1 1342.2, 420.8 1342.1 C 432.5 1342.0, 444.2 1340.4, 455.9 1340.0 C 467.6 1339.7, 479.3 1340.2, 491.0 1340.2 C 502.7 1340.2, 514.4 1340.1, 526.1 1340.0 C 537.8 1339.9, 549.5 1339.7, 561.2 1339.6 C 572.9 1339.6, 584.6 1339.8, 596.2 1339.8 C 607.9 1339.8, 619.6 1339.6, 631.3 1339.5 C 643.0 1339.3, 654.7 1339.0, 666.4 1338.9 C 678.1 1338.9, 689.8 1339.3, 701.5 1339.3 C 713.2 1339.2, 724.9 1338.8, 736.6 1338.8 C 748.3 1338.8, 760.0 1339.4, 771.7 1339.3 C 783.4 1339.3, 795.1 1338.9, 806.8 1338.4 C 818.4 1337.9, 830.1 1337.0, 841.8 1336.2 C 853.5 1335.5, 865.2 1333.9, 876.9 1333.9 C 888.6 1333.9, 906.2 1335.7, 912.0 1336.1" fill="none" stroke="url(#g7)" stroke-width="2.0" stroke-linecap="round" stroke-linejoin="round"/>
<circle cx="912.0" cy="1336.1" r="3.0" fill="#2ec4b6"/>
<circle cx="74.0" cy="1360.0" r="3.2" fill="#2ec4b6" opacity="0.9"/>
<text x="86.0" y="1365.0" font-size="15" fill="#7f97ad" opacity="0.72" letter-spacing="1.5">KAMEWOUN</text>
<text x="986.0" y="1340.1" font-size="13" text-anchor="end" fill="#8fb9c9" opacity="0.85">1.3%</text>
<text x="70" y="112" font-size="62" fill="#ffffff" letter-spacing="3">Liy Lavi</text>
<text x="70" y="152" font-size="19" fill="#f4a261" font-style="italic">Chak koub se yon dyaspora k ap kenbe yon peyi.</text>
<text x="70" y="188" font-size="14" fill="#8fa6bd">Transfè dyaspora yo an pousantaj PIB · 8 peyi · 2000–2024</text>
<line x1="70" y1="212" x2="912" y2="212" stroke="#2ec4b6" stroke-width="1" opacity="0.4"/>
<text x="70.0" y="1371" font-size="13" fill="#6f8296" text-anchor="middle">2000</text>
<text x="245.4" y="1371" font-size="13" fill="#6f8296" text-anchor="middle">2005</text>
<text x="420.8" y="1371" font-size="13" fill="#6f8296" text-anchor="middle">2010</text>
<text x="596.2" y="1371" font-size="13" fill="#6f8296" text-anchor="middle">2015</text>
<text x="771.7" y="1371" font-size="13" fill="#6f8296" text-anchor="middle">2020</text>
<text x="912.0" y="1371" font-size="13" fill="#6f8296" text-anchor="middle">2024</text>
<line x1="70" y1="1351" x2="912" y2="1351" stroke="#1e3a5f" stroke-width="1"/>
<text x="70" y="1448" font-size="12.5" fill="#6f8296">Done : Bank Mondyal (WDI) · Zèv done Atmart LLC · atmart.ltd</text>
<text x="912" y="1448" font-size="12.5" fill="#6f8296" text-anchor="end">Ayiti : 22,4% an 2020 — pi wo a</text>
</svg>